<svg width="16" height="14" viewBox="0 0 16 14" fill="none" xmlns="http://www.w3.org/2000/svg">
<path d="M13.8214 0.968724C13.0972 0.369894 12.1679 0.0405841 11.2046 0.0405841C10.0925 0.0405841 9.01438 0.484734 8.25031 1.25699C8.11203 1.39645 7.98312 1.54528 7.86358 1.70699C6.92608 0.461304 5.36515 -0.178566 3.81358 0.102684C2.52922 0.335886 1.52023 1.04252 0.814748 2.20034C-0.180172 3.83393 -0.261022 5.41004 0.574514 6.88424C1.02217 7.67525 1.60225 8.444 2.34637 9.23384C3.71161 10.6858 5.32879 12.0639 7.43707 13.5733C7.57067 13.6683 7.71481 13.7163 7.86364 13.7163C8.0945 13.7163 8.25154 13.5991 8.32888 13.5417C10.2015 12.2046 11.7378 10.9167 13.0257 9.6042C13.7546 8.86122 14.5819 7.94835 15.1854 6.81045C15.4444 6.32295 15.7398 5.66787 15.7222 4.91904C15.6823 3.30771 15.0437 1.9788 13.8214 0.968643L13.8214 0.968724Z" fill="#FFD700"/>
<path fill-rule="evenodd" clip-rule="evenodd" d="M11.2046 0.040607C12.1679 0.040607 13.0972 0.369917 13.8214 0.968747C15.0437 1.97891 15.6823 3.30774 15.7222 4.91907C15.7398 5.6679 15.4444 6.32298 15.1854 6.81048C15.1516 6.87428 15.1171 6.93738 15.0819 6.99978H0.64092C0.618468 6.96132 0.596333 6.92282 0.574514 6.88427C-0.261022 5.41007 -0.180172 3.83396 0.814748 2.20037C1.52023 1.04255 2.52922 0.335909 3.81358 0.102707C5.36515 -0.178543 6.92608 0.461327 7.86358 1.70702C7.98312 1.5453 8.11203 1.39647 8.25031 1.25702C9.01438 0.484757 10.0925 0.040607 11.2046 0.040607Z" fill="#4E9CF9"/>
</svg>
