<svg width="61" height="61" viewBox="0 0 61 61" fill="none" xmlns="http://www.w3.org/2000/svg">
<path d="M30.4998 0.839417C22.6326 0.839417 15.0898 3.96436 9.52542 9.52597C3.96388 15.0901 0.838867 22.6325 0.838867 30.5003C0.838867 38.3681 3.96381 45.9103 9.52542 51.4747C15.0896 57.0362 22.632 60.1612 30.4998 60.1612C38.3676 60.1612 45.9098 57.0363 51.4741 51.4747C57.0357 45.9105 60.1607 38.3681 60.1607 30.5003C60.1528 22.6359 57.0253 15.0984 51.4641 9.53669C45.9025 3.97515 38.3649 0.847456 30.5004 0.840086L30.4998 0.839417ZM41.5943 34.3475L31.9811 40.3486H31.9838C31.1672 40.859 30.0889 40.613 29.5786 39.7938C29.0682 38.9772 29.3169 37.9016 30.1334 37.3913L39.7466 31.3901V31.3874C40.0528 31.1964 40.2386 30.8614 40.2386 30.5002C40.2386 30.1391 40.0528 29.804 39.7466 29.613L25.4749 20.6913C25.153 20.4898 24.7474 20.4793 24.415 20.6651C24.08 20.8483 23.8758 21.199 23.8732 21.5785V39.4226C23.8758 39.8021 24.08 40.1528 24.415 40.3361C24.7474 40.5219 25.1531 40.5114 25.4749 40.3099C26.2915 39.7969 27.3697 40.0456 27.8801 40.8621C28.3904 41.6813 28.1418 42.7569 27.3252 43.2673C25.9303 44.1545 24.1584 44.2016 22.719 43.3903C21.2691 42.5999 20.3714 41.0741 20.3818 39.4226V21.5785C20.3845 19.9297 21.2795 18.4091 22.7216 17.6108C24.1637 16.8126 25.925 16.8597 27.3252 17.7338L41.5996 26.6556V26.6529C42.9265 27.4826 43.7326 28.9351 43.7326 30.5002C43.7326 32.0653 42.9265 33.5178 41.5996 34.3475L41.5943 34.3475Z" fill="#FFD700"/>
</svg>
