<svg width="38" height="38" viewBox="0 0 38 38" fill="none" xmlns="http://www.w3.org/2000/svg">
<circle cx="19" cy="19" r="19" fill="white"/>
<path d="M26.2 13H11.8C10.8062 13 10 13.794 10 14.7727V24.2273C10 25.206 10.8062 26 11.8 26H26.2C27.1938 26 28 25.206 28 24.2273V14.7727C28 13.794 27.1938 13 26.2 13ZM16.6 15.3636C17.5705 15.3636 18.4458 15.9398 18.817 16.8224C19.189 17.7058 18.9835 18.723 18.2973 19.3988C17.611 20.0746 16.5783 20.277 15.6813 19.9107C14.785 19.545 14.2 18.6831 14.2 17.7272C14.2 16.4221 15.2748 15.3636 16.6 15.3636L16.6 15.3636ZM26.8 24.2273C26.8 24.3839 26.737 24.5345 26.6245 24.6453C26.512 24.7561 26.359 24.8182 26.2 24.8182H11.8C11.4685 24.8182 11.2 24.5538 11.2 24.2273V23.2582C11.1985 23.0056 11.3598 22.7803 11.602 22.6968C13.1628 22.1591 14.848 22.0749 16.456 22.4545C17.6882 22.7544 18.8379 23.3195 19.8219 24.1091C19.9292 24.1926 20.0634 24.2339 20.1999 24.2273C20.4519 24.225 20.6762 24.0685 20.7602 23.8343C20.8449 23.6009 20.7722 23.3394 20.5779 23.1814C20.2787 22.9421 19.9667 22.719 19.6419 22.5136C20.6844 21.4168 21.973 20.5755 23.404 20.0555C24.2875 19.7386 25.213 19.5517 26.1519 19.5C26.3191 19.4867 26.4841 19.5429 26.6079 19.6551C26.7309 19.7674 26.8006 19.9255 26.7999 20.0909L26.8 24.2273Z" fill="#FFD700"/>
</svg>
