<svg width="38" height="38" viewBox="0 0 38 38" fill="none" xmlns="http://www.w3.org/2000/svg">
<path d="M38 19C38 29.4934 29.4934 38 19 38C8.50659 38 0 29.4934 0 19C0 8.50659 8.50659 0 19 0C29.4934 0 38 8.50659 38 19Z" fill="#4E9CF9"/>
<path d="M27.5423 13.8832L23.3194 16.3328V15.5424C23.3194 14.138 22.1914 13 20.7994 13H10.52C9.12794 13 8 14.138 8 15.5424V23.4576C8 24.862 9.12794 26 10.52 26H20.7994C22.1914 26 23.3194 24.862 23.3194 23.4576V22.6672L27.5423 25.1168C28.3421 25.5811 29 25.1996 29 24.2694V14.7353C29 13.8009 28.3446 13.4194 27.5423 13.8829V13.8832Z" fill="white"/>
</svg>
