<svg width="38" height="38" viewBox="0 0 38 38" fill="none" xmlns="http://www.w3.org/2000/svg">
<circle cx="19" cy="19" r="19" fill="#FC9096"/>
<path d="M25.124 20.4799C25.0928 20.5406 25.0627 20.5715 25.0315 20.6322C24.1398 22.094 22.3853 22.2463 21.8013 22.276H21.4324C19.8017 22.276 18.725 21.3625 18.3561 20.9664L17.6483 20.2361L18.6325 19.9625C19.279 19.7793 19.7092 19.5367 19.8943 19.2012C19.9868 19.049 19.9868 18.9276 20.0168 18.7135C20.0481 18.5613 20.0481 18.3781 20.1094 18.1652C19.0639 17.4646 18.2323 16.582 17.9247 15.333C17.3407 12.928 19.1865 11.3434 18.2011 10.1565C16.848 8.54238 11.4646 9.54749 8.5719 12.6841C5.343 16.1859 5.03536 22.4593 8.32796 26.6913C10.7578 29.7674 14.603 31.2899 18.2635 30.9543C23.6471 30.4666 28.5692 25.9611 27.9853 23.0683C27.739 21.8503 26.5696 21.1187 25.124 20.4799ZM9.46616 23.0979C8.4207 23.0979 7.55909 22.2451 7.55909 21.2103C7.55909 20.1754 8.4207 19.3226 9.46616 19.3226C10.5116 19.3226 11.3732 20.1754 11.3732 21.2103C11.3732 22.2451 10.5429 23.0979 9.46616 23.0979ZM13.4042 28.6396C12.3587 28.6396 11.4971 27.7867 11.4971 26.7519C11.4971 25.7171 12.3587 24.8642 13.4042 24.8642C14.4496 24.8642 15.3112 25.7171 15.3112 26.7519C15.3112 27.7879 14.4496 28.6396 13.4042 28.6396ZM15.1262 13.5667C14.4184 13.5667 13.8344 12.9886 13.8344 12.288C13.8344 11.5874 14.4184 11.0093 15.1262 11.0093C15.834 11.0093 16.418 11.5874 16.418 12.288C16.418 12.9886 15.834 13.5667 15.1262 13.5667ZM19.5256 29.4925C18.4802 29.4925 17.6186 28.6397 17.6186 27.6048C17.6186 26.57 18.4802 25.7171 19.5256 25.7171C20.5711 25.7171 21.4327 26.57 21.4327 27.6048C21.4327 28.6397 20.5711 29.4925 19.5256 29.4925ZM24.2625 26.174C23.2171 26.174 22.3555 25.3212 22.3555 24.2863C22.3555 23.2515 23.2171 22.3987 24.2625 22.3987C25.308 22.3987 26.1696 23.2515 26.1696 24.2863C26.1708 25.3521 25.3092 26.174 24.2625 26.174Z" fill="white"/>
<path d="M32.7222 9.27387C32.3533 8.90871 31.768 8.90871 31.3378 9.27387L25.2166 14.4504C24.5088 15.0594 23.9548 15.8207 23.7097 16.5213L23.6484 16.7342C23.8335 16.7949 24.2324 16.9174 24.5713 17.2826C24.9402 17.6787 25.094 18.0748 25.1253 18.2567C25.1866 18.2258 25.2791 18.2258 25.3404 18.1961C26.0482 17.9831 26.8785 17.4039 27.4938 16.6735L32.7235 10.6145C33.0925 10.2173 33.0923 9.60809 32.7222 9.27387Z" fill="white"/>
<path d="M18.7877 20.3572L18.4488 20.4488L18.6952 20.6926C19.0641 21.0578 20.0182 21.8797 21.4951 21.8797H21.8027C22.3255 21.8488 23.9249 21.6965 24.7252 20.4178C24.7565 20.3869 24.7565 20.3572 24.7865 20.3262C25.0942 19.7779 25.1867 19.1082 25.0629 18.4992C24.9704 18.0734 24.7553 17.6773 24.4476 17.3728C24.1713 17.0992 23.8324 16.916 23.4322 16.8245C22.9395 16.7031 22.4168 16.7329 21.9253 16.9458C21.3101 17.1896 20.9712 17.5857 20.7873 17.8284C20.6335 18.0413 20.5722 18.2245 20.541 18.4064C20.5097 18.5277 20.5097 18.6503 20.4797 18.7716C20.4484 18.9845 20.4484 19.1974 20.3259 19.4115C20.0483 19.8088 19.5568 20.1442 18.7877 20.3572Z" fill="white"/>
</svg>
