<svg width="52" height="52" viewBox="0 0 52 52" fill="none" xmlns="http://www.w3.org/2000/svg">
<path d="M26 0C40.3594 6.27669e-07 52 11.6406 52 26C52 40.3594 40.3594 52 26 52C11.6406 52 -6.27669e-07 40.3594 0 26C6.27669e-07 11.6406 11.6406 -6.27669e-07 26 0Z" fill="white"/>
<path fill-rule="evenodd" clip-rule="evenodd" d="M23.5264 18.9016L31.2952 25.9748L23.5264 33.0967C22.4595 34.0455 24.1867 35.6602 25.2536 34.7114L34.0895 26.641C34.4456 26.308 34.4961 25.6922 34.1399 25.3592L25.2536 17.2887C24.1867 16.34 22.4612 17.9531 23.5265 18.9035L23.5264 18.9016Z" fill="#BFCBDA"/>
</svg>
