<svg width="52" height="52" viewBox="0 0 52 52" fill="none" xmlns="http://www.w3.org/2000/svg">
<path d="M26 52C11.6406 52 -6.27669e-07 40.3594 0 26C6.27669e-07 11.6406 11.6406 -6.27669e-07 26 0C40.3594 6.27669e-07 52 11.6406 52 26C52 40.3594 40.3594 52 26 52Z" fill="white"/>
<path fill-rule="evenodd" clip-rule="evenodd" d="M28.4736 33.0984L20.7048 26.0252L28.4736 18.9033C29.5405 17.9545 27.8133 16.3398 26.7464 17.2886L17.9105 25.359C17.5544 25.692 17.5039 26.3078 17.8601 26.6408L26.7464 34.7113C27.8133 35.66 29.5388 34.0469 28.4735 33.0965L28.4736 33.0984Z" fill="#BFCBDA"/>
</svg>
