<svg width="52" height="52" viewBox="0 0 52 52" fill="none" xmlns="http://www.w3.org/2000/svg">
<path d="M26 0C40.3594 -6.27669e-07 52 11.6406 52 26C52 40.3594 40.3594 52 26 52C11.6406 52 6.27669e-07 40.3594 0 26C-6.27669e-07 11.6406 11.6406 6.2767e-07 26 0Z" fill="url(#paint0_radial_127_9)"/>
<path fill-rule="evenodd" clip-rule="evenodd" d="M23.5264 18.9016L31.2952 25.9748L23.5264 33.0967C22.4595 34.0455 24.1867 35.6602 25.2536 34.7114L34.0895 26.641C34.4457 26.308 34.4961 25.6922 34.1399 25.3592L25.2536 17.2887C24.1867 16.34 22.4612 17.9532 23.5265 18.9035L23.5264 18.9016Z" fill="#4E9CF9"/>
<defs>
<radialGradient id="paint0_radial_127_9" cx="0" cy="0" r="1" gradientUnits="userSpaceOnUse" gradientTransform="translate(26 26) rotate(90) scale(26)">
<stop stop-color="#FFE78E"/>
<stop offset="1" stop-color="#FFD700"/>
</radialGradient>
</defs>
</svg>
