<svg width="52" height="52" viewBox="0 0 52 52" fill="none" xmlns="http://www.w3.org/2000/svg">
<path d="M26 52C11.6406 52 6.27669e-07 40.3594 0 26C-6.27669e-07 11.6406 11.6406 6.27669e-07 26 0C40.3594 -6.27669e-07 52 11.6406 52 26C52 40.3594 40.3594 52 26 52Z" fill="url(#paint0_radial_127_10)"/>
<path fill-rule="evenodd" clip-rule="evenodd" d="M28.4736 33.0984L20.7048 26.0252L28.4736 18.9033C29.5405 17.9545 27.8133 16.3398 26.7464 17.2886L17.9105 25.359C17.5543 25.692 17.5039 26.3078 17.8601 26.6408L26.7464 34.7113C27.8133 35.66 29.5388 34.0468 28.4735 33.0965L28.4736 33.0984Z" fill="#4E9CF9"/>
<defs>
<radialGradient id="paint0_radial_127_10" cx="0" cy="0" r="1" gradientUnits="userSpaceOnUse" gradientTransform="translate(26 26) rotate(-90) scale(26)">
<stop stop-color="#FFE78E"/>
<stop offset="1" stop-color="#FFD700"/>
</radialGradient>
</defs>
</svg>
