<svg width="109" height="108" viewBox="0 0 109 108" fill="none" xmlns="http://www.w3.org/2000/svg">
<mask id="path-1-inside-1_80_2" fill="white">
<path d="M108.003 54C108.003 83.8234 83.8263 108 54.0029 108C24.1796 108 0.00292969 83.8234 0.00292969 54C0.00292969 24.1766 24.1796 0 54.0029 0C83.8263 0 108.003 24.1766 108.003 54Z"/>
<path d="M95.0029 54.5C95.0029 76.8675 76.8705 95 54.5029 95C32.1354 95 14.0029 76.8675 14.0029 54.5C14.0029 32.1325 32.1354 14 54.5029 14C76.8705 14 95.0029 32.1325 95.0029 54.5Z"/>
</mask>
<path d="M95.0029 54.5C95.0029 76.8675 76.8705 95 54.5029 95C32.1354 95 14.0029 76.8675 14.0029 54.5C14.0029 32.1325 32.1354 14 54.5029 14C76.8705 14 95.0029 32.1325 95.0029 54.5Z" fill="url(#paint0_linear_80_2)"/>
<path d="M107.003 54C107.003 83.2711 83.274 107 54.0029 107V109C84.3786 109 109.003 84.3757 109.003 54H107.003ZM54.0029 107C24.7318 107 1.00293 83.2711 1.00293 54H-0.99707C-0.99707 84.3757 23.6273 109 54.0029 109V107ZM1.00293 54C1.00293 24.7289 24.7318 1 54.0029 1V-1C23.6273 -1 -0.99707 23.6243 -0.99707 54H1.00293ZM54.0029 1C83.274 1 107.003 24.7289 107.003 54H109.003C109.003 23.6243 84.3786 -1 54.0029 -1V1ZM94.0029 54.5C94.0029 76.3152 76.3182 94 54.5029 94V96C77.4227 96 96.0029 77.4198 96.0029 54.5H94.0029ZM54.5029 94C32.6877 94 15.0029 76.3152 15.0029 54.5H13.0029C13.0029 77.4198 31.5831 96 54.5029 96V94ZM15.0029 54.5C15.0029 32.6848 32.6877 15 54.5029 15V13C31.5831 13 13.0029 31.5802 13.0029 54.5H15.0029ZM54.5029 15C76.3182 15 94.0029 32.6848 94.0029 54.5H96.0029C96.0029 31.5802 77.4227 13 54.5029 13V15Z" fill="#FFFBE5" mask="url(#path-1-inside-1_80_2)"/>
<rect y="54" width="108" height="54" fill="white"/>
<path d="M80.0029 54C80.0029 68.3594 68.3623 80 54.0029 80C39.6435 80 28.0029 68.3594 28.0029 54C28.0029 39.6406 39.6435 28 54.0029 28C68.3623 28 80.0029 39.6406 80.0029 54Z" fill="url(#paint1_radial_80_2)"/>
<path fill-rule="evenodd" clip-rule="evenodd" d="M61.1014 51.5265L54.0281 59.2953L46.9062 51.5265C45.9575 50.4596 44.3427 52.1869 45.2915 53.2537L53.362 62.0896C53.695 62.4458 54.3107 62.4962 54.6437 62.14L62.7142 53.2538C63.663 52.1869 62.0498 50.4614 61.0995 51.5266L61.1014 51.5265Z" fill="#4E9CF9"/>
<defs>
<linearGradient id="paint0_linear_80_2" x1="54.5029" y1="14" x2="54.5029" y2="95" gradientUnits="userSpaceOnUse">
<stop stop-color="#FFFDFD"/>
<stop offset="0.5" stop-color="#FFF09F"/>
<stop offset="1" stop-color="white" stop-opacity="0"/>
</linearGradient>
<radialGradient id="paint1_radial_80_2" cx="0" cy="0" r="1" gradientUnits="userSpaceOnUse" gradientTransform="translate(54.0029 54) rotate(90) scale(26)">
<stop stop-color="#FFE78E"/>
<stop offset="1" stop-color="#FFD700"/>
</radialGradient>
</defs>
</svg>
