<svg width="46" height="16" viewBox="0 0 46 16" fill="none" xmlns="http://www.w3.org/2000/svg">
<path d="M-3.49687e-07 7.9999C-3.5817e-07 8.19398 0.121875 8.45383 0.243751 8.57884L7.17712 15.7367C7.50042 16.0624 8.02515 16.1002 8.40263 15.7696C8.73948 15.4752 8.74795 14.8996 8.43648 14.5789L2.87073 8.84201L45.1333 8.84202C45.6124 8.84202 46 8.46537 46 7.99991C46 7.53445 45.6124 7.1578 45.1333 7.1578L2.87073 7.1578L8.43649 1.42095C8.74794 1.10023 8.72594 0.539353 8.40263 0.230174C8.06071 -0.0954857 7.49532 -0.0675236 7.17712 0.263068L0.243751 7.42097C0.0406262 7.61505 0.0033833 7.80253 -3.49687e-07 7.9999Z" fill="#4E9CF9"/>
</svg>
