<svg width="221" height="67" viewBox="0 0 221 67" fill="none" xmlns="http://www.w3.org/2000/svg">
<g filter="url(#filter0_d_2_1019)">
<path d="M2.13071 6.93243C2.99587 2.74051 6.77732 0 11.0576 0H208.543C213.067 0 217.009 3.04168 217.809 7.49422C218.862 13.3575 220.049 22.1485 220.049 32C220.049 41.8515 218.862 50.6425 217.809 56.5058C217.009 60.9583 213.067 64 208.543 64H11.7584C7.14607 64 3.15833 60.8404 2.41502 56.2884C1.48747 50.6081 0.406061 42.1283 0.062542 32C-0.297056 21.3976 0.960665 12.6016 2.13071 6.93243Z" fill="#4799F9"/>
<path d="M2.37555 6.98297C3.21393 2.92081 6.88143 0.25 11.0576 0.25H208.543C212.956 0.25 216.786 3.21476 217.563 7.53843C218.614 13.3919 219.799 22.1676 219.799 32C219.799 41.8324 218.614 50.6081 217.563 56.4616C216.786 60.7852 212.956 63.75 208.543 63.75H11.7584C7.25958 63.75 3.38389 60.6706 2.66175 56.2481C1.73555 50.5761 0.655485 42.1071 0.312398 31.9915C-0.0463879 21.4131 1.20857 12.6373 2.37555 6.98297Z" stroke="url(#paint0_linear_2_1019)" stroke-opacity="0.5" stroke-width="0.5"/>
</g>
<defs>
<filter id="filter0_d_2_1019" x="0" y="0" width="220.049" height="67" filterUnits="userSpaceOnUse" color-interpolation-filters="sRGB">
<feFlood flood-opacity="0" result="BackgroundImageFix"/>
<feColorMatrix in="SourceAlpha" type="matrix" values="0 0 0 0 0 0 0 0 0 0 0 0 0 0 0 0 0 0 127 0" result="hardAlpha"/>
<feOffset dy="3"/>
<feComposite in2="hardAlpha" operator="out"/>
<feColorMatrix type="matrix" values="0 0 0 0 0.0193576 0 0 0 0 0.492458 0 0 0 0 0.929167 0 0 0 1 0"/>
<feBlend mode="normal" in2="BackgroundImageFix" result="effect1_dropShadow_2_1019"/>
<feBlend mode="normal" in="SourceGraphic" in2="effect1_dropShadow_2_1019" result="shape"/>
</filter>
<linearGradient id="paint0_linear_2_1019" x1="110" y1="3.98671e-09" x2="110.024" y2="64" gradientUnits="userSpaceOnUse">
<stop stop-color="#309AFC"/>
<stop offset="1" stop-color="#66B6FF"/>
</linearGradient>
</defs>
</svg>
